<?xml version="1.0" encoding="UTF-8"?>
<svg xmlns="http://www.w3.org/2000/svg" xmlns:xlink="http://www.w3.org/1999/xlink" width="15px" height="15px" viewBox="0 0 15 15" version="1.1">
<g id="surface1">
<path style=" stroke:none;fill-rule:nonzero;fill:rgb(0%,0%,0%);fill-opacity:1;" d="M 13.816406 0.632812 C 13.171875 -0.0078125 12.140625 -0.0078125 11.496094 0.632812 L 10.617188 1.511719 L 13.484375 4.382812 L 14.367188 3.5 C 15.007812 2.859375 15.007812 1.824219 14.367188 1.183594 Z M 5.050781 7.078125 C 4.875 7.257812 4.734375 7.480469 4.65625 7.722656 L 3.789062 10.324219 C 3.703125 10.574219 3.769531 10.855469 3.957031 11.042969 C 4.144531 11.234375 4.425781 11.296875 4.675781 11.214844 L 7.28125 10.347656 C 7.519531 10.269531 7.742188 10.128906 7.921875 9.949219 L 12.820312 5.050781 L 9.949219 2.179688 Z M 2.8125 1.875 C 1.261719 1.875 0 3.136719 0 4.6875 L 0 12.1875 C 0 13.738281 1.261719 15 2.8125 15 L 10.3125 15 C 11.863281 15 13.125 13.738281 13.125 12.1875 L 13.125 9.375 C 13.125 8.859375 12.703125 8.4375 12.1875 8.4375 C 11.671875 8.4375 11.25 8.859375 11.25 9.375 L 11.25 12.1875 C 11.25 12.703125 10.828125 13.125 10.3125 13.125 L 2.8125 13.125 C 2.296875 13.125 1.875 12.703125 1.875 12.1875 L 1.875 4.6875 C 1.875 4.171875 2.296875 3.75 2.8125 3.75 L 5.625 3.75 C 6.140625 3.75 6.5625 3.328125 6.5625 2.8125 C 6.5625 2.296875 6.140625 1.875 5.625 1.875 Z M 2.8125 1.875 "/>
</g>
</svg>
