<?xml version="1.0"?>
<svg width="18" height="20" xmlns="http://www.w3.org/2000/svg" xmlns:svg="http://www.w3.org/2000/svg" version="1.1">
 <g class="layer">
  <title>Layer 1</title>
  <g id="surface1">
   <path d="m9,10c2.84,0 5.15,-2.23 5.15,-5c0,-2.76 -2.31,-5 -5.15,-5c-2.84,0 -5.15,2.24 -5.15,5c0,2.77 2.31,5 5.15,5zm-1.83,1.88c-3.96,0 -7.17,3.11 -7.17,6.96c0,0.64 0.53,1.16 1.2,1.16l15.6,0c0.67,0 1.2,-0.52 1.2,-1.16c0,-3.85 -3.21,-6.96 -7.17,-6.96l-3.66,0zm0,0" fill="#222222" fill-rule="nonzero" id="svg_1"/>
  </g>
 </g>
</svg>