<?xml version="1.0"?>
<svg width="15" height="17" xmlns="http://www.w3.org/2000/svg" xmlns:svg="http://www.w3.org/2000/svg" version="1.1">
 <g class="layer">
  <title>Layer 1</title>
  <g id="surface1">
   <path d="m4.82,5.02l0,1.49l5.36,0l0,-1.49c0,-1.38 -1.2,-2.49 -2.68,-2.49c-1.48,0 -2.68,1.11 -2.68,2.49zm-2.14,1.49l0,-1.49c0,-2.48 2.16,-4.49 4.82,-4.49c2.66,0 4.82,2.01 4.82,4.49l0,1.49l0.54,0c1.18,0 2.14,0.9 2.14,1.99l0,5.98c0,1.1 -0.96,1.99 -2.14,1.99l-10.72,0c-1.18,0 -2.14,-0.89 -2.14,-1.99l0,-5.98c0,-1.09 0.96,-1.99 2.14,-1.99l0.54,0zm0,0" fill="#222222" fill-rule="nonzero" id="svg_1"/>
  </g>
 </g>
</svg>