<?xml version="1.0" encoding="UTF-8"?>
<svg xmlns="http://www.w3.org/2000/svg" xmlns:xlink="http://www.w3.org/1999/xlink" width="18px" height="18px" viewBox="0 0 18 18" version="1.1">
<g id="surface1">
<path style=" stroke:none;fill-rule:nonzero;fill:rgb(93.72549%,93.72549%,93.72549%);fill-opacity:1;" d="M 1.125 1.125 L 16.875 1.125 C 17.496094 1.125 18 1.628906 18 2.25 L 18 3.375 C 18 3.996094 17.496094 4.5 16.875 4.5 L 1.125 4.5 C 0.503906 4.5 0 3.996094 0 3.375 L 0 2.25 C 0 1.628906 0.503906 1.125 1.125 1.125 Z M 1.125 5.625 L 16.875 5.625 L 16.875 14.625 C 16.875 15.867188 15.867188 16.875 14.625 16.875 L 3.375 16.875 C 2.132812 16.875 1.125 15.867188 1.125 14.625 Z M 5.625 8.4375 C 5.625 8.746094 5.878906 9 6.1875 9 L 11.8125 9 C 12.121094 9 12.375 8.746094 12.375 8.4375 C 12.375 8.128906 12.121094 7.875 11.8125 7.875 L 6.1875 7.875 C 5.878906 7.875 5.625 8.128906 5.625 8.4375 Z M 5.625 8.4375 "/>
</g>
</svg>
