<?xml version="1.0" encoding="UTF-8"?>
<svg xmlns="http://www.w3.org/2000/svg" xmlns:xlink="http://www.w3.org/1999/xlink" width="18px" height="20px" viewBox="0 0 18 20" version="1.1">
<g id="surface1">
<path style=" stroke:none;fill-rule:nonzero;fill:rgb(93.72549%,93.72549%,93.72549%);fill-opacity:1;" d="M 3.855469 1.25 L 3.855469 2.5 L 1.929688 2.5 C 0.863281 2.5 0 3.339844 0 4.375 L 0 6.25 L 18 6.25 L 18 4.375 C 18 3.339844 17.136719 2.5 16.070312 2.5 L 14.144531 2.5 L 14.144531 1.25 C 14.144531 0.558594 13.566406 0 12.855469 0 C 12.144531 0 11.570312 0.558594 11.570312 1.25 L 11.570312 2.5 L 6.429688 2.5 L 6.429688 1.25 C 6.429688 0.558594 5.855469 0 5.144531 0 C 4.433594 0 3.855469 0.558594 3.855469 1.25 Z M 18 7.5 L 0 7.5 L 0 18.125 C 0 19.160156 0.863281 20 1.929688 20 L 16.070312 20 C 17.136719 20 18 19.160156 18 18.125 Z M 18 7.5 "/>
</g>
</svg>
