<?xml version="1.0" encoding="UTF-8"?>
<svg xmlns="http://www.w3.org/2000/svg" xmlns:xlink="http://www.w3.org/1999/xlink" width="23px" height="20px" viewBox="0 0 22 20" version="1.1">
<g id="surface1">
<path style=" stroke:none;fill-rule:nonzero;fill:rgb(93.72549%,93.72549%,93.72549%);fill-opacity:1;" d="M 11.609375 9.375 L 11.609375 0.648438 C 11.609375 0.296875 11.878906 0 12.222656 0 C 16.945312 0 20.777344 3.917969 20.777344 8.75 C 20.777344 9.101562 20.488281 9.375 20.144531 9.375 Z M 1.222656 10.625 C 1.222656 5.886719 4.664062 1.964844 9.128906 1.339844 C 9.480469 1.289062 9.777344 1.578125 9.777344 1.941406 L 9.777344 11.25 L 15.753906 17.363281 C 16.011719 17.625 15.992188 18.054688 15.699219 18.265625 C 14.199219 19.359375 12.367188 20 10.390625 20 C 5.328125 20 1.222656 15.804688 1.222656 10.625 Z M 21.328125 11.25 C 21.683594 11.25 21.960938 11.554688 21.914062 11.914062 C 21.621094 14.097656 20.59375 16.039062 19.09375 17.472656 C 18.863281 17.691406 18.503906 17.675781 18.285156 17.445312 L 12.222656 11.25 Z M 21.328125 11.25 "/>
</g>
</svg>
