<?xml version="1.0" encoding="UTF-8"?>
<svg xmlns="http://www.w3.org/2000/svg" xmlns:xlink="http://www.w3.org/1999/xlink" width="20px" height="20px" viewBox="0 0 20 20" version="1.1">
<g id="surface1">
<path style=" stroke:none;fill-rule:nonzero;fill:rgb(93.72549%,93.72549%,93.72549%);fill-opacity:1;" d="M 10 0 C 15.523438 0 20 4.476562 20 10 C 20 15.523438 15.523438 20 10 20 C 4.476562 20 0 15.523438 0 10 C 0 4.476562 4.476562 0 10 0 Z M 9.0625 4.6875 L 9.0625 10 C 9.0625 10.3125 9.21875 10.605469 9.480469 10.78125 L 13.230469 13.28125 C 13.660156 13.570312 14.242188 13.453125 14.53125 13.019531 C 14.820312 12.585938 14.703125 12.007812 14.269531 11.71875 L 10.9375 9.5 L 10.9375 4.6875 C 10.9375 4.167969 10.519531 3.75 10 3.75 C 9.480469 3.75 9.0625 4.167969 9.0625 4.6875 Z M 9.0625 4.6875 "/>
</g>
</svg>
