<?xml version="1.0" encoding="UTF-8"?>
<svg xmlns="http://www.w3.org/2000/svg" xmlns:xlink="http://www.w3.org/1999/xlink" width="16px" height="16px" viewBox="0 0 16 16" version="1.1">
<g id="surface1">
<path style=" stroke:none;fill-rule:nonzero;fill:rgb(93.72549%,93.72549%,93.72549%);fill-opacity:1;" d="M 11.808594 3.308594 L 15.648438 7.148438 C 15.871094 7.371094 16 7.679688 16 8 C 16 8.320312 15.871094 8.628906 15.648438 8.851562 L 11.808594 12.691406 C 11.609375 12.890625 11.339844 13 11.058594 13 C 10.476562 13 10 12.523438 10 11.941406 L 10 10 L 6 10 C 5.445312 10 5 9.554688 5 9 L 5 7 C 5 6.445312 5.445312 6 6 6 L 10 6 L 10 4.058594 C 10 3.476562 10.476562 3 11.058594 3 C 11.339844 3 11.609375 3.113281 11.808594 3.308594 Z M 5 3 L 3 3 C 2.445312 3 2 3.445312 2 4 L 2 12 C 2 12.554688 2.445312 13 3 13 L 5 13 C 5.554688 13 6 13.445312 6 14 C 6 14.554688 5.554688 15 5 15 L 3 15 C 1.34375 15 0 13.65625 0 12 L 0 4 C 0 2.34375 1.34375 1 3 1 L 5 1 C 5.554688 1 6 1.445312 6 2 C 6 2.554688 5.554688 3 5 3 Z M 5 3 "/>
</g>
</svg>
