<?xml version="1.0"?>
<svg width="15" height="15" xmlns="http://www.w3.org/2000/svg" xmlns:svg="http://www.w3.org/2000/svg" version="1.1">
 <g class="layer">
  <title>Layer 1</title>
  <g id="surface1">
   <path d="m13.82,0.63c-0.65,-0.64 -1.68,-0.64 -2.32,0l-0.88,0.88l2.86,2.87l0.89,-0.88c0.64,-0.64 0.64,-1.68 0,-2.32l-0.55,-0.55zm-8.77,6.45c-0.17,0.18 -0.32,0.4 -0.39,0.64l-0.87,2.6c-0.09,0.25 -0.02,0.54 0.17,0.72c0.18,0.19 0.47,0.26 0.72,0.17l2.6,-0.86c0.24,-0.08 0.46,-0.22 0.64,-0.4l4.9,-4.9l-2.87,-2.87l-4.9,4.9zm-2.24,-5.2c-1.55,0 -2.81,1.26 -2.81,2.81l0,7.5c0,1.55 1.26,2.81 2.81,2.81l7.5,0c1.55,0 2.82,-1.26 2.82,-2.81l0,-2.81c0,-0.52 -0.43,-0.94 -0.94,-0.94c-0.52,0 -0.94,0.42 -0.94,0.94l0,2.81c0,0.51 -0.42,0.94 -0.94,0.94l-7.5,0c-0.51,0 -0.93,-0.43 -0.93,-0.94l0,-7.5c0,-0.52 0.42,-0.94 0.93,-0.94l2.82,0c0.51,0 0.93,-0.42 0.93,-0.94c0,-0.51 -0.42,-0.93 -0.93,-0.93l-2.82,0zm0,0" fill="#efefef" fill-rule="nonzero" id="svg_1"/>
  </g>
 </g>
</svg>