<?xml version="1.0" encoding="UTF-8"?>
<svg xmlns="http://www.w3.org/2000/svg" xmlns:xlink="http://www.w3.org/1999/xlink" width="15px" height="20px" viewBox="0 0 15 20" version="1.1">
<g id="surface1">
<path style=" stroke:none;fill-rule:nonzero;fill:rgb(93.72549%,93.72549%,93.72549%);fill-opacity:1;" d="M 2.5 0 C 1.121094 0 0 1.121094 0 2.5 L 0 17.5 C 0 18.878906 1.121094 20 2.5 20 L 12.5 20 C 13.878906 20 15 18.878906 15 17.5 L 15 6.25 L 10 6.25 C 9.308594 6.25 8.75 5.691406 8.75 5 L 8.75 0 Z M 10 0 L 10 5 L 15 5 Z M 4.375 10 L 10.625 10 C 10.96875 10 11.25 10.28125 11.25 10.625 C 11.25 10.96875 10.96875 11.25 10.625 11.25 L 4.375 11.25 C 4.03125 11.25 3.75 10.96875 3.75 10.625 C 3.75 10.28125 4.03125 10 4.375 10 Z M 4.375 12.5 L 10.625 12.5 C 10.96875 12.5 11.25 12.78125 11.25 13.125 C 11.25 13.46875 10.96875 13.75 10.625 13.75 L 4.375 13.75 C 4.03125 13.75 3.75 13.46875 3.75 13.125 C 3.75 12.78125 4.03125 12.5 4.375 12.5 Z M 4.375 15 L 10.625 15 C 10.96875 15 11.25 15.28125 11.25 15.625 C 11.25 15.96875 10.96875 16.25 10.625 16.25 L 4.375 16.25 C 4.03125 16.25 3.75 15.96875 3.75 15.625 C 3.75 15.28125 4.03125 15 4.375 15 Z M 4.375 15 "/>
</g>
</svg>
