<?xml version="1.0" encoding="UTF-8"?>
<svg xmlns="http://www.w3.org/2000/svg" xmlns:xlink="http://www.w3.org/1999/xlink" width="21px" height="17px" viewBox="0 0 21 17" version="1.1">
<g id="surface1">
<path style=" stroke:none;fill-rule:nonzero;fill:rgb(0%,0%,0%);fill-opacity:1;" d="M 5.773438 9.5625 C 7.804688 9.5625 9.449219 7.898438 9.449219 5.84375 C 9.449219 3.789062 7.804688 2.125 5.773438 2.125 C 3.746094 2.125 2.101562 3.789062 2.101562 5.84375 C 2.101562 7.898438 3.746094 9.5625 5.773438 9.5625 Z M 11.550781 5.84375 C 11.550781 8.710938 9.511719 11.09375 6.824219 11.589844 L 6.824219 12.75 L 7.875 12.75 C 8.457031 12.75 8.925781 13.226562 8.925781 13.8125 C 8.925781 14.398438 8.457031 14.875 7.875 14.875 L 6.824219 14.875 L 6.824219 15.9375 C 6.824219 16.523438 6.355469 17 5.773438 17 C 5.195312 17 4.726562 16.523438 4.726562 15.9375 L 4.726562 14.875 L 3.675781 14.875 C 3.09375 14.875 2.625 14.398438 2.625 13.8125 C 2.625 13.226562 3.09375 12.75 3.675781 12.75 L 4.726562 12.75 L 4.726562 11.589844 C 2.039062 11.09375 0 8.710938 0 5.84375 C 0 2.617188 2.585938 0 5.773438 0 C 8.964844 0 11.550781 2.617188 11.550781 5.84375 Z M 8.921875 11.972656 C 9.554688 11.636719 10.132812 11.207031 10.632812 10.699219 C 11.289062 11.3125 12.164062 11.6875 13.128906 11.6875 C 15.160156 11.6875 16.804688 10.023438 16.804688 7.96875 C 16.804688 5.914062 15.160156 4.25 13.128906 4.25 C 12.890625 4.25 12.660156 4.273438 12.4375 4.316406 C 12.273438 3.601562 12.007812 2.933594 11.648438 2.316406 C 12.117188 2.191406 12.613281 2.125 13.125 2.125 C 14.339844 2.125 15.46875 2.503906 16.398438 3.15625 L 17.074219 2.46875 L 15.980469 1.359375 C 15.753906 1.132812 15.6875 0.789062 15.808594 0.492188 C 15.929688 0.191406 16.21875 0 16.539062 0 L 20.210938 0 C 20.648438 0 21 0.355469 21 0.796875 L 21 4.515625 C 21 4.835938 20.808594 5.128906 20.515625 5.253906 C 20.21875 5.375 19.882812 5.308594 19.65625 5.078125 L 18.558594 3.972656 L 17.882812 4.65625 C 18.523438 5.597656 18.898438 6.738281 18.898438 7.96875 C 18.898438 11.195312 16.3125 13.8125 13.125 13.8125 C 11.46875 13.8125 9.976562 13.105469 8.921875 11.972656 Z M 8.921875 11.972656 "/>
</g>
</svg>
