<?xml version="1.0" encoding="UTF-8"?>
<svg xmlns="http://www.w3.org/2000/svg" xmlns:xlink="http://www.w3.org/1999/xlink" width="19px" height="17px" viewBox="0 0 19 17" version="1.1">
<g id="surface1">
<path style=" stroke:none;fill-rule:nonzero;fill:rgb(0%,0%,0%);fill-opacity:1;" d="M 18.992188 8.484375 C 18.992188 9.082031 18.5 9.550781 17.9375 9.550781 L 16.882812 9.550781 L 16.90625 14.867188 C 16.90625 14.957031 16.898438 15.046875 16.890625 15.136719 L 16.890625 15.671875 C 16.890625 16.40625 16.296875 17 15.570312 17 L 15.042969 17 C 15.003906 17 14.96875 17 14.933594 16.996094 C 14.886719 17 14.839844 17 14.792969 17 L 12.929688 17 C 12.203125 17 11.609375 16.40625 11.609375 15.671875 L 11.609375 12.75 C 11.609375 12.164062 11.140625 11.6875 10.554688 11.6875 L 8.445312 11.6875 C 7.859375 11.6875 7.390625 12.164062 7.390625 12.75 L 7.390625 15.671875 C 7.390625 16.40625 6.796875 17 6.070312 17 L 4.226562 17 C 4.175781 17 4.125 16.996094 4.078125 16.992188 C 4.039062 16.996094 3.996094 17 3.957031 17 L 3.429688 17 C 2.703125 17 2.109375 16.40625 2.109375 15.671875 L 2.109375 11.953125 C 2.109375 11.921875 2.109375 11.890625 2.113281 11.859375 L 2.113281 9.550781 L 1.054688 9.550781 C 0.460938 9.550781 0 9.085938 0 8.484375 C 0 8.183594 0.0976562 7.917969 0.328125 7.6875 L 8.789062 0.265625 C 9.019531 0.03125 9.28125 0 9.511719 0 C 9.742188 0 10.007812 0.0664062 10.207031 0.234375 L 18.628906 7.6875 C 18.894531 7.917969 19.027344 8.183594 18.992188 8.484375 Z M 18.992188 8.484375 "/>
</g>
</svg>
