<?xml version="1.0" encoding="UTF-8"?>
<svg xmlns="http://www.w3.org/2000/svg" xmlns:xlink="http://www.w3.org/1999/xlink" width="15px" height="17px" viewBox="0 0 15 17" version="1.1">
<g id="surface1">
<path style=" stroke:none;fill-rule:nonzero;fill:rgb(93.72549%,93.72549%,93.72549%);fill-opacity:1;" d="M 4.820312 5.015625 L 4.820312 6.511719 L 10.179688 6.511719 L 10.179688 5.015625 C 10.179688 3.636719 8.980469 2.527344 7.5 2.527344 C 6.019531 2.527344 4.820312 3.636719 4.820312 5.015625 Z M 2.679688 6.511719 L 2.679688 5.015625 C 2.679688 2.535156 4.839844 0.53125 7.5 0.53125 C 10.160156 0.53125 12.320312 2.535156 12.320312 5.015625 L 12.320312 6.511719 L 12.859375 6.511719 C 14.042969 6.511719 15 7.40625 15 8.5 L 15 14.480469 C 15 15.578125 14.042969 16.46875 12.859375 16.46875 L 2.140625 16.46875 C 0.957031 16.46875 0 15.578125 0 14.480469 L 0 8.5 C 0 7.40625 0.957031 6.511719 2.140625 6.511719 Z M 2.679688 6.511719 "/>
</g>
</svg>
