<?xml version="1.0" encoding="UTF-8"?>
<svg xmlns="http://www.w3.org/2000/svg" xmlns:xlink="http://www.w3.org/1999/xlink" width="18px" height="18px" viewBox="0 0 18 18" version="1.1">
<g id="surface1">
<path style=" stroke:none;fill-rule:nonzero;fill:rgb(93.72549%,93.72549%,93.72549%);fill-opacity:1;" d="M 2.304688 0.703125 C 1.179688 0.828125 0.285156 1.644531 0.0546875 2.757812 C -0.0234375 3.128906 -0.0234375 12.058594 0.0546875 12.429688 C 0.226562 13.253906 0.765625 13.929688 1.527344 14.273438 C 1.902344 14.445312 2.136719 14.484375 2.894531 14.507812 L 3.585938 14.53125 L 3.585938 15.660156 C 3.585938 16.292969 3.601562 16.84375 3.621094 16.910156 C 3.640625 16.980469 3.710938 17.089844 3.78125 17.15625 C 3.941406 17.3125 4.21875 17.347656 4.414062 17.230469 C 4.484375 17.1875 5.300781 16.566406 6.234375 15.84375 L 7.929688 14.539062 L 11.867188 14.515625 C 16.203125 14.496094 15.957031 14.507812 16.472656 14.273438 C 17.234375 13.929688 17.773438 13.253906 17.945312 12.429688 C 18.023438 12.058594 18.023438 3.128906 17.945312 2.757812 C 17.738281 1.773438 17.019531 1.019531 16.019531 0.75 C 15.820312 0.691406 15.292969 0.6875 9.175781 0.683594 C 5.53125 0.679688 2.441406 0.6875 2.304688 0.703125 Z M 2.304688 0.703125 "/>
</g>
</svg>
