<?xml version="1.0" encoding="UTF-8"?>
<svg xmlns="http://www.w3.org/2000/svg" xmlns:xlink="http://www.w3.org/1999/xlink" width="17px" height="17px" viewBox="0 0 17 17" version="1.1">
<g id="surface1">
<path style=" stroke:none;fill-rule:nonzero;fill:rgb(0%,0%,0%);fill-opacity:1;" d="M 5.476562 0.816406 C 5.21875 0.199219 4.546875 -0.128906 3.902344 0.046875 L 0.980469 0.84375 C 0.402344 1.003906 0 1.527344 0 2.125 C 0 10.339844 6.660156 17 14.875 17 C 15.472656 17 15.996094 16.597656 16.15625 16.019531 L 16.953125 13.097656 C 17.128906 12.453125 16.800781 11.78125 16.183594 11.523438 L 12.996094 10.195312 C 12.453125 9.972656 11.828125 10.125 11.457031 10.582031 L 10.117188 12.21875 C 7.78125 11.113281 5.886719 9.21875 4.78125 6.882812 L 6.417969 5.546875 C 6.875 5.171875 7.027344 4.546875 6.804688 4.007812 L 5.476562 0.820312 Z M 5.476562 0.816406 "/>
</g>
</svg>
