<?xml version="1.0" encoding="UTF-8"?>
<svg xmlns="http://www.w3.org/2000/svg" xmlns:xlink="http://www.w3.org/1999/xlink" width="88px" height="100px" viewBox="0 0 88 100" version="1.1">
<g id="surface1">
<path style=" stroke:none;fill-rule:nonzero;fill:rgb(0%,0%,0%);fill-opacity:1;" d="M 50.289062 16.007812 C 50.289062 12.585938 47.476562 9.828125 44 9.828125 C 40.523438 9.828125 37.710938 12.585938 37.710938 16.007812 L 37.710938 43.820312 L 9.429688 43.820312 C 5.953125 43.820312 3.140625 46.578125 3.140625 50 C 3.140625 53.421875 5.953125 56.179688 9.429688 56.179688 L 37.710938 56.179688 L 37.710938 83.992188 C 37.710938 87.414062 40.523438 90.171875 44 90.171875 C 47.476562 90.171875 50.289062 87.414062 50.289062 83.992188 L 50.289062 56.179688 L 78.570312 56.179688 C 82.046875 56.179688 84.859375 53.421875 84.859375 50 C 84.859375 46.578125 82.046875 43.820312 78.570312 43.820312 L 50.289062 43.820312 Z M 50.289062 16.007812 "/>
</g>
</svg>
