<?xml version="1.0" encoding="UTF-8"?>
<svg xmlns="http://www.w3.org/2000/svg" xmlns:xlink="http://www.w3.org/1999/xlink" width="20px" height="20px" viewBox="0 0 20 20" version="1.1">
<g id="surface1">
<path style=" stroke:none;fill-rule:nonzero;fill:rgb(93.72549%,93.72549%,93.72549%);fill-opacity:1;" d="M 3.75 0 C 2.371094 0 1.25 1.121094 1.25 2.5 L 1.25 17.5 C 1.25 18.878906 2.371094 20 3.75 20 L 15 20 C 16.378906 20 17.5 18.878906 17.5 17.5 L 17.5 2.5 C 17.5 1.121094 16.378906 0 15 0 Z M 8.125 11.25 L 10.625 11.25 C 12.351562 11.25 13.75 12.648438 13.75 14.375 C 13.75 14.71875 13.46875 15 13.125 15 L 5.625 15 C 5.28125 15 5 14.71875 5 14.375 C 5 12.648438 6.398438 11.25 8.125 11.25 Z M 6.875 7.5 C 6.875 6.121094 7.996094 5 9.375 5 C 10.753906 5 11.875 6.121094 11.875 7.5 C 11.875 8.878906 10.753906 10 9.375 10 C 7.996094 10 6.875 8.878906 6.875 7.5 Z M 20 3.125 C 20 2.78125 19.71875 2.5 19.375 2.5 C 19.03125 2.5 18.75 2.78125 18.75 3.125 L 18.75 5.625 C 18.75 5.96875 19.03125 6.25 19.375 6.25 C 19.71875 6.25 20 5.96875 20 5.625 Z M 19.375 7.5 C 19.03125 7.5 18.75 7.78125 18.75 8.125 L 18.75 10.625 C 18.75 10.96875 19.03125 11.25 19.375 11.25 C 19.71875 11.25 20 10.96875 20 10.625 L 20 8.125 C 20 7.78125 19.71875 7.5 19.375 7.5 Z M 20 13.125 C 20 12.78125 19.71875 12.5 19.375 12.5 C 19.03125 12.5 18.75 12.78125 18.75 13.125 L 18.75 15.625 C 18.75 15.96875 19.03125 16.25 19.375 16.25 C 19.71875 16.25 20 15.96875 20 15.625 Z M 20 13.125 "/>
</g>
</svg>
