<?xml version="1.0" encoding="UTF-8"?>
<svg xmlns="http://www.w3.org/2000/svg" xmlns:xlink="http://www.w3.org/1999/xlink" width="17px" height="17px" viewBox="0 0 17 17" version="1.1">
<g id="surface1">
<path style=" stroke:none;fill-rule:nonzero;fill:rgb(0%,0%,0%);fill-opacity:1;" d="M 7.234375 3.515625 L 11.3125 7.59375 C 11.550781 7.832031 11.6875 8.160156 11.6875 8.5 C 11.6875 8.839844 11.550781 9.167969 11.3125 9.40625 L 7.234375 13.484375 C 7.023438 13.695312 6.738281 13.8125 6.4375 13.8125 C 5.816406 13.8125 5.3125 13.308594 5.3125 12.6875 L 5.3125 10.625 L 1.0625 10.625 C 0.476562 10.625 0 10.148438 0 9.5625 L 0 7.4375 C 0 6.851562 0.476562 6.375 1.0625 6.375 L 5.3125 6.375 L 5.3125 4.3125 C 5.3125 3.691406 5.816406 3.1875 6.4375 3.1875 C 6.738281 3.1875 7.023438 3.308594 7.234375 3.515625 Z M 11.6875 13.8125 L 13.8125 13.8125 C 14.398438 13.8125 14.875 13.335938 14.875 12.75 L 14.875 4.25 C 14.875 3.664062 14.398438 3.1875 13.8125 3.1875 L 11.6875 3.1875 C 11.101562 3.1875 10.625 2.710938 10.625 2.125 C 10.625 1.539062 11.101562 1.0625 11.6875 1.0625 L 13.8125 1.0625 C 15.570312 1.0625 17 2.492188 17 4.25 L 17 12.75 C 17 14.507812 15.570312 15.9375 13.8125 15.9375 L 11.6875 15.9375 C 11.101562 15.9375 10.625 15.460938 10.625 14.875 C 10.625 14.289062 11.101562 13.8125 11.6875 13.8125 Z M 11.6875 13.8125 "/>
</g>
</svg>
