<?xml version="1.0" encoding="UTF-8"?>
<svg xmlns="http://www.w3.org/2000/svg" xmlns:xlink="http://www.w3.org/1999/xlink" width="18px" height="20px" viewBox="0 0 18 20" version="1.1">
<g id="surface1">
<path style=" stroke:none;fill-rule:nonzero;fill:rgb(93.72549%,93.72549%,93.72549%);fill-opacity:1;" d="M 2.570312 1.171875 C 1.152344 1.171875 0 2.292969 0 3.671875 L 0 16.171875 C 0 17.550781 1.152344 18.671875 2.570312 18.671875 L 15.429688 18.671875 C 16.847656 18.671875 18 17.550781 18 16.171875 L 18 3.671875 C 18 2.292969 16.847656 1.171875 15.429688 1.171875 Z M 5.746094 6.757812 C 6.125 6.390625 6.734375 6.390625 7.109375 6.757812 L 8.996094 8.59375 L 10.882812 6.757812 C 11.261719 6.390625 11.871094 6.390625 12.246094 6.757812 C 12.621094 7.125 12.625 7.71875 12.246094 8.082031 L 10.359375 9.917969 L 12.246094 11.753906 C 12.625 12.121094 12.625 12.714844 12.246094 13.078125 C 11.867188 13.441406 11.257812 13.445312 10.882812 13.078125 L 8.996094 11.242188 L 7.109375 13.078125 C 6.730469 13.445312 6.121094 13.445312 5.746094 13.078125 C 5.371094 12.710938 5.367188 12.117188 5.746094 11.753906 L 7.632812 9.917969 L 5.746094 8.082031 C 5.367188 7.714844 5.367188 7.121094 5.746094 6.757812 Z M 5.746094 6.757812 "/>
</g>
</svg>
