<?xml version="1.0" encoding="UTF-8"?>
<svg xmlns="http://www.w3.org/2000/svg" xmlns:xlink="http://www.w3.org/1999/xlink" width="25px" height="25px" viewBox="0 0 25 25" version="1.1">
<g id="surface1">
<path style=" stroke:none;fill-rule:nonzero;fill:rgb(93.72549%,93.72549%,93.72549%);fill-opacity:1;" d="M 18.773438 9.039062 C 19.296875 8.652344 19.296875 8.003906 18.773438 7.617188 C 18.277344 7.230469 17.445312 7.230469 16.953125 7.617188 L 12.699219 10.941406 L 8.421875 7.636719 C 7.925781 7.230469 7.105469 7.230469 6.601562 7.636719 C 6.097656 8.023438 6.097656 8.671875 6.601562 9.058594 L 10.875 12.363281 L 6.625 15.6875 C 6.097656 16.074219 6.097656 16.734375 6.625 17.113281 C 7.125 17.5 7.949219 17.5 8.453125 17.113281 L 12.699219 13.789062 L 16.972656 17.09375 C 17.476562 17.5 18.300781 17.5 18.804688 17.09375 C 19.296875 16.714844 19.296875 16.054688 18.804688 15.667969 L 14.527344 12.363281 Z M 18.773438 9.039062 "/>
</g>
</svg>
