<?xml version="1.0" encoding="UTF-8"?>
<svg xmlns="http://www.w3.org/2000/svg" xmlns:xlink="http://www.w3.org/1999/xlink" width="10px" height="13px" viewBox="0 0 10 13" version="1.1">
<g id="surface1">
<path style=" stroke:none;fill-rule:nonzero;fill:rgb(0%,0%,0%);fill-opacity:1;" d="M 8.921875 3.824219 C 9.246094 3.507812 9.246094 2.992188 8.921875 2.671875 C 8.597656 2.355469 8.066406 2.355469 7.742188 2.671875 L 5 5.351562 L 2.253906 2.675781 C 1.929688 2.359375 1.402344 2.359375 1.074219 2.675781 C 0.75 2.992188 0.75 3.507812 1.074219 3.828125 L 3.820312 6.5 L 1.078125 9.175781 C 0.753906 9.492188 0.753906 10.007812 1.078125 10.328125 C 1.402344 10.644531 1.933594 10.644531 2.257812 10.328125 L 5 7.648438 L 7.746094 10.324219 C 8.070312 10.640625 8.597656 10.640625 8.925781 10.324219 C 9.25 10.007812 9.25 9.492188 8.925781 9.171875 L 6.179688 6.5 Z M 8.921875 3.824219 "/>
</g>
</svg>
